<svg xmlns="http://www.w3.org/2000/svg" viewBox="0 0 341.549 341.549" xml:space="preserve"><path style="fill:#f3d8b6" d="M253.964 245.996c-18.667-6.681-51.458-11.736-51.458-81.376h-63.462c0 69.64-32.791 74.695-51.458 81.376 0 47.368 68.832 48.824 80.688 53.239v1.537s.922-.188 2.501-.68c1.579.492 2.501.68 2.501.68v-1.537c11.855-4.415 80.688-5.872 80.688-53.239"/><path style="fill:#eec8a2" d="M202.506 164.62h-31.731v135.471c1.579.492 2.501.68 2.501.68v-1.537c11.856-4.415 80.688-5.871 80.688-53.239-18.667-6.68-51.458-11.735-51.458-81.375"/><path style="fill:#f3dbc4" d="M170.777 186.782c-27.454 0-48.409-23.119-57.799-40.456s-15.888-77.445 4.34-104.897c19.808-26.883 53.459-23.838 53.459-23.838s33.649-3.045 53.458 23.838c20.226 27.452 13.726 87.56 4.335 104.897s-30.345 40.456-57.793 40.456"/><path style="fill:#edceae" d="M224.235 41.429c-19.81-26.883-53.458-23.838-53.458-23.838h-.002v169.191h.002c27.449 0 48.401-23.119 57.794-40.456 9.39-17.337 15.89-77.444-4.336-104.897"/><path style="fill:#a97c75" d="M237.227 109.439c-.725 14.745-22.425 29.324-29.599 39.061-16.801 22.803-36.854 3.24-36.854 3.24s-20.051 19.563-36.854-3.24c-7.173-9.735-28.871-24.311-29.596-39.054-1.19 20.863 11.665 42.273 16.381 50.979 7.973 14.719 26.764 34.348 50.072 34.348 23.304 0 42.094-19.629 50.068-34.348 4.716-8.708 17.572-30.121 16.382-50.986"/><path style="fill:#976f6a" d="M237.227 109.439c-.725 14.744-22.425 29.324-29.599 39.061-16.775 22.767-36.79 3.302-36.853 3.241v43.031h.001c23.304 0 42.094-19.628 50.068-34.348 4.717-8.707 17.573-30.12 16.383-50.985"/><path style="fill:#a0756f" d="M206.114 25.918S181.687-6.895 166.407 1.32c-39.045 20.991-44.219 18.365-52.979 21.408-21.241 7.378-21.798 5.405-19.122 21.776 8.879 54.319-.557 79.337 15.961 59.147s22.025-15.423 64.073-20.012 15.256-23.363 37.28-8.18 24.919 42.732 28.589 42.732c3.671 0 11.84-52.59 6.283-68.911-11.862-34.841-40.378-23.362-40.378-23.362"/><path style="fill:#8c6762" d="M246.492 49.281c-11.862-34.842-40.378-23.362-40.378-23.362S185.925-1.197 170.775.045v83.97c1.16-.118 2.344-.242 3.564-.375 42.047-4.588 15.256-23.363 37.28-8.18s24.919 42.732 28.589 42.732 11.841-52.589 6.284-68.911"/><ellipse transform="rotate(-69.249 232.955 119.073)" style="fill:#edceae" cx="232.948" cy="119.069" rx="17.187" ry="10.048"/><ellipse transform="rotate(69.249 108.6 119.081)" style="fill:#f3dbc4" cx="108.597" cy="119.078" rx="17.187" ry="10.048"/><path style="fill:#545465" d="M290.757 300.867v40.681H50.793v-40.681c0-30.431 17.377-56.963 40.605-70.913 6.043-3.641 19.69-7.43 26.844-9.196 5.953-1.488 53.438 22.729 53.438 22.729s48.674-23.218 54.627-21.729c7.154 1.766 17.802 4.554 23.844 8.196 23.229 13.95 40.606 40.482 40.606 70.913"/><path style="fill:#494857" d="M250.152 229.954c-6.043-3.641-16.69-6.429-23.844-8.195-5.953-1.488-54.627 21.729-54.627 21.729s-.321-.164-.906-.459v98.52h119.982v-40.681c0-30.432-17.378-56.964-40.605-70.914"/><path style="fill:#fff" d="m218.942 216.981-48.167 23.441-48.167-23.441c-11.5 5.5 10.396 38.436 14.833 36.833 10.963-3.96 33.334-10.329 33.334-10.329s22.371 6.369 33.334 10.329c4.437 1.603 26.333-31.333 14.833-36.833"/><path style="fill:#dedde0" d="m218.942 216.981-48.167 23.441v3.063s22.371 6.369 33.334 10.329c4.437 1.603 26.333-31.333 14.833-36.833"/></svg>